{
    "asset" : {
        "generator" : "Khronos glTF Blender I/O v1.7.33",
        "version" : "2.0"
    },
    "scene" : 0,
    "scenes" : [
        {
            "name" : "Scene",
            "nodes" : [
                0,
                1,
                2,
                3,
                4,
                5
            ]
        }
    ],
    "nodes" : [
        {
            "mesh" : 0,
            "name" : "stoneBench",
            "rotation" : [
                0.7071068286895752,
                0,
                0,
                0.7071067094802856
            ],
            "translation" : [
                0,
                3.8493990898132324,
                -0.000661486410535872
            ]
        },
        {
            "mesh" : 1,
            "name" : "benchExtend",
            "rotation" : [
                0.7071068286895752,
                0,
                0,
                0.7071067094802856
            ],
            "translation" : [
                -5.132838249206543,
                3.7493999004364014,
                -2.500659704208374
            ]
        },
        {
            "mesh" : 2,
            "name" : "legExtend1",
            "rotation" : [
                0.7071068286895752,
                0,
                0,
                0.7071067094802856
            ],
            "translation" : [
                -4.932838439941406,
                -3.1506009101867676,
                -2.3465800285339355
            ]
        },
        {
            "mesh" : 3,
            "name" : "door",
            "rotation" : [
                0.7071068286895752,
                0,
                0,
                0.7071067094802856
            ],
            "translation" : [
                -4.222048759460449,
                -2.499117612838745,
                2.3925068378448486
            ]
        },
        {
            "mesh" : 4,
            "name" : "workBench",
            "rotation" : [
                0.7071068286895752,
                0,
                0,
                0.7071067094802856
            ],
            "translation" : [
                0,
                -4.150601387023926,
                -0.000661486410535872
            ]
        },
        {
            "mesh" : 5,
            "name" : "door1",
            "rotation" : [
                0.7071068286895752,
                0,
                0,
                0.7071067094802856
            ],
            "translation" : [
                4.337528228759766,
                -2.4999232292175293,
                2.3925068378448486
            ]
        }
    ],
    "animations" : [
        {
            "channels" : [
                {
                    "sampler" : 0,
                    "target" : {
                        "node" : 1,
                        "path" : "rotation"
                    }
                }
            ],
            "name" : "upperDoor",
            "samplers" : [
                {
                    "input" : 23,
                    "interpolation" : "LINEAR",
                    "output" : 24
                }
            ]
        },
        {
            "channels" : [
                {
                    "sampler" : 0,
                    "target" : {
                        "node" : 2,
                        "path" : "rotation"
                    }
                }
            ],
            "name" : "upperDoorLeg",
            "samplers" : [
                {
                    "input" : 25,
                    "interpolation" : "LINEAR",
                    "output" : 26
                }
            ]
        },
        {
            "channels" : [
                {
                    "sampler" : 0,
                    "target" : {
                        "node" : 3,
                        "path" : "rotation"
                    }
                }
            ],
            "name" : "leftDoor",
            "samplers" : [
                {
                    "input" : 27,
                    "interpolation" : "LINEAR",
                    "output" : 28
                }
            ]
        },
        {
            "channels" : [
                {
                    "sampler" : 0,
                    "target" : {
                        "node" : 5,
                        "path" : "rotation"
                    }
                }
            ],
            "name" : "rightDoor",
            "samplers" : [
                {
                    "input" : 27,
                    "interpolation" : "LINEAR",
                    "output" : 29
                }
            ]
        }
    ],
    "materials" : [
        {
            "doubleSided" : true,
            "name" : "LightMarble.001",
            "pbrMetallicRoughness" : {
                "baseColorTexture" : {
                    "index" : 0
                },
                "metallicFactor" : 0,
                "roughnessFactor" : 0.5
            }
        },
        {
            "doubleSided" : true,
            "name" : "WoodDark.001",
            "pbrMetallicRoughness" : {
                "baseColorTexture" : {
                    "index" : 1
                },
                "metallicFactor" : 0,
                "roughnessFactor" : 0.5527864098548889
            }
        }
    ],
    "meshes" : [
        {
            "name" : "Mesh",
            "primitives" : [
                {
                    "attributes" : {
                        "POSITION" : 0,
                        "NORMAL" : 1,
                        "TEXCOORD_0" : 2
                    },
                    "indices" : 3,
                    "material" : 0
                }
            ]
        },
        {
            "name" : "Mesh.001",
            "primitives" : [
                {
                    "attributes" : {
                        "POSITION" : 4,
                        "NORMAL" : 5,
                        "TEXCOORD_0" : 6
                    },
                    "indices" : 7,
                    "material" : 1
                }
            ]
        },
        {
            "name" : "Mesh.002",
            "primitives" : [
                {
                    "attributes" : {
                        "POSITION" : 8,
                        "NORMAL" : 9,
                        "TEXCOORD_0" : 10
                    },
                    "indices" : 11,
                    "material" : 1
                }
            ]
        },
        {
            "name" : "Mesh.003",
            "primitives" : [
                {
                    "attributes" : {
                        "POSITION" : 12,
                        "NORMAL" : 13,
                        "TEXCOORD_0" : 14
                    },
                    "indices" : 15,
                    "material" : 1
                }
            ]
        },
        {
            "name" : "Mesh.004",
            "primitives" : [
                {
                    "attributes" : {
                        "POSITION" : 16,
                        "NORMAL" : 17,
                        "TEXCOORD_0" : 18
                    },
                    "indices" : 19,
                    "material" : 1
                }
            ]
        },
        {
            "name" : "Mesh.005",
            "primitives" : [
                {
                    "attributes" : {
                        "POSITION" : 20,
                        "NORMAL" : 21,
                        "TEXCOORD_0" : 22
                    },
                    "indices" : 15,
                    "material" : 1
                }
            ]
        }
    ],
    "textures" : [
        {
            "sampler" : 0,
            "source" : 0
        },
        {
            "sampler" : 0,
            "source" : 1
        }
    ],
    "images" : [
        {
            "bufferView" : 4,
            "mimeType" : "image/jpeg",
            "name" : "marble1"
        },
        {
            "bufferView" : 9,
            "mimeType" : "image/png",
            "name" : "wood3"
        }
    ],
    "accessors" : [
        {
            "bufferView" : 0,
            "componentType" : 5126,
            "count" : 30,
            "max" : [
                5,
                2.5,
                0.09999990463256836
            ],
            "min" : [
                -5,
                -2.5,
                -0.10000038146972656
            ],
            "type" : "VEC3"
        },
        {
            "bufferView" : 1,
            "componentType" : 5126,
            "count" : 30,
            "type" : "VEC3"
        },
        {
            "bufferView" : 2,
            "componentType" : 5126,
            "count" : 30,
            "type" : "VEC2"
        },
        {
            "bufferView" : 3,
            "componentType" : 5123,
            "count" : 48,
            "type" : "SCALAR"
        },
        {
            "bufferView" : 5,
            "componentType" : 5126,
            "count" : 392,
            "max" : [
                0,
                5,
                4.000001430511475
            ],
            "min" : [
                -0.20000028610229492,
                -2.384185791015625e-07,
                9.5367431640625e-07
            ],
            "type" : "VEC3"
        },
        {
            "bufferView" : 6,
            "componentType" : 5126,
            "count" : 392,
            "type" : "VEC3"
        },
        {
            "bufferView" : 7,
            "componentType" : 5126,
            "count" : 392,
            "type" : "VEC2"
        },
        {
            "bufferView" : 8,
            "componentType" : 5123,
            "count" : 840,
            "type" : "SCALAR"
        },
        {
            "bufferView" : 10,
            "componentType" : 5126,
            "count" : 68,
            "max" : [
                0,
                4.747804641723633,
                1.000000238418579
            ],
            "min" : [
                -0.19999980926513672,
                -2.384185791015625e-07,
                -6.899999618530273
            ],
            "type" : "VEC3"
        },
        {
            "bufferView" : 11,
            "componentType" : 5126,
            "count" : 68,
            "type" : "VEC3"
        },
        {
            "bufferView" : 12,
            "componentType" : 5126,
            "count" : 68,
            "type" : "VEC2"
        },
        {
            "bufferView" : 13,
            "componentType" : 5123,
            "count" : 102,
            "type" : "SCALAR"
        },
        {
            "bufferView" : 14,
            "componentType" : 5126,
            "count" : 596,
            "max" : [
                4.15273904800415,
                -2.384185791015625e-07,
                0
            ],
            "min" : [
                0,
                -0.31547999382019043,
                -3.3141565322875977
            ],
            "type" : "VEC3"
        },
        {
            "bufferView" : 15,
            "componentType" : 5126,
            "count" : 596,
            "type" : "VEC3"
        },
        {
            "bufferView" : 16,
            "componentType" : 5126,
            "count" : 596,
            "type" : "VEC2"
        },
        {
            "bufferView" : 17,
            "componentType" : 5123,
            "count" : 1536,
            "type" : "SCALAR"
        },
        {
            "bufferView" : 18,
            "componentType" : 5126,
            "count" : 4273,
            "max" : [
                5.149999618530273,
                2.3981196880340576,
                3.186381246475436e-16
            ],
            "min" : [
                -5.149999618530273,
                -2.5,
                -9.100000381469727
            ],
            "type" : "VEC3"
        },
        {
            "bufferView" : 19,
            "componentType" : 5126,
            "count" : 4273,
            "type" : "VEC3"
        },
        {
            "bufferView" : 20,
            "componentType" : 5126,
            "count" : 4273,
            "type" : "VEC2"
        },
        {
            "bufferView" : 21,
            "componentType" : 5123,
            "count" : 10788,
            "type" : "SCALAR"
        },
        {
            "bufferView" : 22,
            "componentType" : 5126,
            "count" : 596,
            "max" : [
                9.5367431640625e-07,
                -2.384185791015625e-07,
                0
            ],
            "min" : [
                -4.152738094329834,
                -0.31547999382019043,
                -3.3141567707061768
            ],
            "type" : "VEC3"
        },
        {
            "bufferView" : 23,
            "componentType" : 5126,
            "count" : 596,
            "type" : "VEC3"
        },
        {
            "bufferView" : 24,
            "componentType" : 5126,
            "count" : 596,
            "type" : "VEC2"
        },
        {
            "bufferView" : 25,
            "componentType" : 5126,
            "count" : 41,
            "max" : [
                1.6666666666666667
            ],
            "min" : [
                0
            ],
            "type" : "SCALAR"
        },
        {
            "bufferView" : 26,
            "componentType" : 5126,
            "count" : 41,
            "type" : "VEC4"
        },
        {
            "bufferView" : 27,
            "componentType" : 5126,
            "count" : 21,
            "max" : [
                1.875
            ],
            "min" : [
                1.0416666666666667
            ],
            "type" : "SCALAR"
        },
        {
            "bufferView" : 28,
            "componentType" : 5126,
            "count" : 21,
            "type" : "VEC4"
        },
        {
            "bufferView" : 29,
            "componentType" : 5126,
            "count" : 31,
            "max" : [
                1.25
            ],
            "min" : [
                0
            ],
            "type" : "SCALAR"
        },
        {
            "bufferView" : 30,
            "componentType" : 5126,
            "count" : 31,
            "type" : "VEC4"
        },
        {
            "bufferView" : 31,
            "componentType" : 5126,
            "count" : 31,
            "type" : "VEC4"
        }
    ],
    "bufferViews" : [
        {
            "buffer" : 0,
            "byteLength" : 360,
            "byteOffset" : 0
        },
        {
            "buffer" : 0,
            "byteLength" : 360,
            "byteOffset" : 360
        },
        {
            "buffer" : 0,
            "byteLength" : 240,
            "byteOffset" : 720
        },
        {
            "buffer" : 0,
            "byteLength" : 96,
            "byteOffset" : 960
        },
        {
            "buffer" : 0,
            "byteLength" : 1079219,
            "byteOffset" : 1056
        },
        {
            "buffer" : 0,
            "byteLength" : 4704,
            "byteOffset" : 1080276
        },
        {
            "buffer" : 0,
            "byteLength" : 4704,
            "byteOffset" : 1084980
        },
        {
            "buffer" : 0,
            "byteLength" : 3136,
            "byteOffset" : 1089684
        },
        {
            "buffer" : 0,
            "byteLength" : 1680,
            "byteOffset" : 1092820
        },
        {
            "buffer" : 0,
            "byteLength" : 1221656,
            "byteOffset" : 1094500
        },
        {
            "buffer" : 0,
            "byteLength" : 816,
            "byteOffset" : 2316156
        },
        {
            "buffer" : 0,
            "byteLength" : 816,
            "byteOffset" : 2316972
        },
        {
            "buffer" : 0,
            "byteLength" : 544,
            "byteOffset" : 2317788
        },
        {
            "buffer" : 0,
            "byteLength" : 204,
            "byteOffset" : 2318332
        },
        {
            "buffer" : 0,
            "byteLength" : 7152,
            "byteOffset" : 2318536
        },
        {
            "buffer" : 0,
            "byteLength" : 7152,
            "byteOffset" : 2325688
        },
        {
            "buffer" : 0,
            "byteLength" : 4768,
            "byteOffset" : 2332840
        },
        {
            "buffer" : 0,
            "byteLength" : 3072,
            "byteOffset" : 2337608
        },
        {
            "buffer" : 0,
            "byteLength" : 51276,
            "byteOffset" : 2340680
        },
        {
            "buffer" : 0,
            "byteLength" : 51276,
            "byteOffset" : 2391956
        },
        {
            "buffer" : 0,
            "byteLength" : 34184,
            "byteOffset" : 2443232
        },
        {
            "buffer" : 0,
            "byteLength" : 21576,
            "byteOffset" : 2477416
        },
        {
            "buffer" : 0,
            "byteLength" : 7152,
            "byteOffset" : 2498992
        },
        {
            "buffer" : 0,
            "byteLength" : 7152,
            "byteOffset" : 2506144
        },
        {
            "buffer" : 0,
            "byteLength" : 4768,
            "byteOffset" : 2513296
        },
        {
            "buffer" : 0,
            "byteLength" : 164,
            "byteOffset" : 2518064
        },
        {
            "buffer" : 0,
            "byteLength" : 656,
            "byteOffset" : 2518228
        },
        {
            "buffer" : 0,
            "byteLength" : 84,
            "byteOffset" : 2518884
        },
        {
            "buffer" : 0,
            "byteLength" : 336,
            "byteOffset" : 2518968
        },
        {
            "buffer" : 0,
            "byteLength" : 124,
            "byteOffset" : 2519304
        },
        {
            "buffer" : 0,
            "byteLength" : 496,
            "byteOffset" : 2519428
        },
        {
            "buffer" : 0,
            "byteLength" : 496,
            "byteOffset" : 2519924
        }
    ],
    "samplers" : [
        {
            "magFilter" : 9729,
            "minFilter" : 9987
        }
    ],
    "buffers" : [
        {
            "byteLength" : 2520420,
            "uri" : "data:application/octet-stream;base64,"
        }
    ]
}
